# Blender 3.5.0
# www.blender.org
mtllib player.mtl
o 立方体.001
v 1.642486 0.424623 0.000000
v 0.515429 1.524623 -0.472950
v 0.515429 1.524623 0.472950
v 0.535126 1.184962 -0.472950
v 0.535126 1.184962 0.472950
v 0.000000 2.568123 0.472950
v 0.000000 1.622222 0.472950
v 0.000000 2.688531 -0.593359
v -0.472950 1.622222 -0.472950
v 0.472950 1.622222 -0.472950
v -0.472950 2.095172 0.472950
v 0.472950 2.095172 -0.472950
v -0.472950 2.095172 -0.472950
v 0.472950 2.095172 0.472950
v 0.000000 1.622222 -0.472950
v 0.000000 2.095172 0.472950
v 0.000000 2.095172 -0.472950
v 0.472950 1.622222 0.000000
v 0.000000 2.645095 0.010258
v -0.472950 1.622222 0.000000
v -0.472950 2.095172 0.000000
v 0.472950 2.095172 0.000000
v 0.000000 1.622222 0.000000
v 0.378480 0.356137 -0.378480
v 0.378480 1.537423 -0.378480
v 0.378480 0.356137 0.378480
v 0.378480 1.537423 0.378480
v -0.378480 0.356137 -0.378480
v -0.378480 1.537423 -0.378480
v -0.378480 0.356137 0.378480
v -0.378480 1.537423 0.378480
v -1.618860 0.403185 0.000000
v -0.491802 1.510545 -0.472950
v -0.491802 1.510545 0.472950
v -0.511499 1.168612 -0.472950
v -0.511499 1.168612 0.472950
vn 0.6985 0.7156 -0.0000
vn 0.4063 0.0236 0.9134
vn -0.5660 -0.8244 -0.0000
vn 0.4063 0.0236 -0.9134
vn -0.9983 -0.0579 -0.0000
vn -0.0000 -0.1989 -0.9800
vn 0.7071 0.7071 -0.0000
vn -0.0000 -1.0000 -0.0000
vn -0.7582 0.6521 -0.0000
vn -0.0000 -0.0000 1.0000
vn -1.0000 -0.0000 -0.0000
vn 0.5774 -0.5774 0.5774
vn -0.0000 -0.0000 -1.0000
vn 1.0000 -0.0000 -0.0000
vn -0.5774 -0.5774 0.5774
vn -0.7071 0.7071 -0.0000
vn 0.7582 0.6521 -0.0000
vn 0.7548 0.6471 0.1077
vn -0.7767 0.6283 0.0452
vn -0.7548 0.6471 0.1077
vn 0.7767 0.6283 0.0452
vn -0.0000 1.0000 -0.0000
vn 0.7008 -0.7133 -0.0000
vn 0.4063 -0.0234 -0.9134
vn -0.5686 0.8226 -0.0000
vn 0.4063 -0.0234 0.9134
vn -0.9983 0.0575 -0.0000
vt 0.578061 0.000000
vt 0.951496 0.140606
vt 0.688726 0.000000
vt 1.000000 0.478205
vt 0.578061 0.343974
vt 1.000000 0.140606
vt 0.852566 0.545627
vt 0.388139 0.287215
vt 0.951497 0.477274
vt 0.852566 0.347405
vt 0.578061 0.276888
vt 0.951497 0.192810
vt 0.804316 0.544011
vt 0.902430 0.425500
vt 0.739985 0.276888
vt 0.804316 0.345789
vt 0.879840 0.000000
vt 0.422154 0.364155
vt 0.646158 0.557283
vt 0.739985 0.140606
vt 0.925455 0.734014
vt 0.198152 0.648703
vt 0.518883 0.575300
vt 0.422154 0.575300
vt 0.198152 0.345789
vt 0.422154 0.800027
vt 0.396468 0.577973
vt 0.450094 0.345789
vt 0.226082 0.577973
vt 0.619790 0.799363
vt 0.396468 0.719434
vt 0.879840 0.139856
vt 0.804012 0.663899
vt 0.646158 0.417069
vt 0.619790 0.700286
vt 0.223932 0.504515
vt 0.447936 0.416975
vt 0.422154 0.700950
vt 0.198152 0.788928
vt 0.739985 0.000750
vt 0.422154 0.504218
vt 0.520972 0.799695
vt 0.396468 0.648703
vt 0.809913 0.070303
vt 0.520972 0.700618
vt 0.297310 0.719434
vt 0.325193 0.577824
vt 0.548846 0.568822
vt 0.324843 0.352345
vt 0.925455 0.593783
vt 0.297310 0.577973
vt 0.549204 0.345836
vt 0.547047 0.417022
vt 0.323043 0.504366
vt 0.297310 0.648703
vt 0.158567 0.627359
vt 0.804316 0.593252
vt 0.739985 0.299308
vt 0.158567 0.810913
vt 0.804316 0.345789
vt 0.004195 0.622956
vt 0.646158 0.841450
vt 0.739985 0.140606
vt 0.000000 0.622956
vt 0.000000 0.806509
vt 0.646158 0.593784
vt 0.162819 0.621966
vt 0.646158 0.593783
vt 0.004195 0.334669
vt 0.853190 0.299308
vt 0.646158 0.346320
vt 0.000000 0.512502
vt 0.162819 0.333679
vt 0.804012 0.841450
vt 0.853190 0.140606
vt 0.804012 0.593783
vt 0.158624 0.511512
vt 0.388139 0.000000
vt 0.974872 0.593783
vt 0.108120 0.333679
vt 0.902430 0.478335
vt 0.388139 0.345789
vt 0.902430 0.140606
vt 0.198152 0.000000
vt 0.198152 0.288920
vt 0.974872 0.928031
vt 0.000000 0.005266
vt 0.853190 0.192870
vt 0.198152 0.054361
vt 0.925455 0.875995
vt 0.000000 0.059627
s 0
usemtl マテリアル
f 1/1/1 2/5/1 3/8/1
f 1/2/2 3/9/2 5/14/2
f 1/3/3 5/15/3 4/11/3
f 1/4/4 4/12/4 2/6/4
f 3/10/5 4/13/5 5/16/5
f 3/10/5 2/7/5 4/13/5
usemtl Material
f 17/45/6 8/23/6 12/35/6
f 22/54/7 6/18/7 14/41/7
f 20/51/8 15/43/8 23/55/8
f 19/48/9 13/37/9 21/53/9
f 16/44/10 6/17/10 11/32/10
f 7/20/10 16/44/10 11/32/10
f 21/53/11 9/28/11 20/52/11
f 18/46/12 14/39/12 7/22/12
f 17/45/13 10/30/13 15/42/13
f 13/38/13 15/42/13 9/26/13
f 7/20/10 14/40/10 16/44/10
f 14/40/10 6/17/10 16/44/10
f 23/55/8 10/31/8 18/46/8
f 13/38/6 8/23/6 17/45/6
f 7/22/8 23/55/8 18/46/8
f 12/36/14 18/47/14 10/29/14
f 11/33/15 20/50/15 7/21/15
f 6/19/16 21/53/16 11/34/16
f 7/22/8 20/51/8 23/55/8
f 12/36/17 19/49/17 22/54/17
f 22/54/18 19/49/18 6/18/18
f 20/51/8 9/27/8 15/43/8
f 19/48/19 8/24/19 13/37/19
f 21/53/11 13/37/11 9/28/11
f 18/47/14 22/54/14 14/41/14
f 17/45/13 12/35/13 10/30/13
f 13/38/13 17/45/13 15/42/13
f 23/55/8 15/43/8 10/31/8
f 12/36/14 22/54/14 18/47/14
f 11/34/11 21/53/11 20/52/11
f 6/19/20 19/48/20 21/53/20
f 12/36/21 8/25/21 19/49/21
usemtl マテリアル.001
f 25/59/14 26/64/14 24/56/14
f 27/66/10 30/74/10 26/62/10
f 31/77/11 28/69/11 30/73/11
f 29/71/13 24/57/13 28/68/13
f 30/75/8 24/58/8 26/63/8
f 27/67/22 29/72/22 31/77/22
f 25/59/14 27/65/14 26/64/14
f 27/66/10 31/76/10 30/74/10
f 31/77/11 29/72/11 28/69/11
f 29/71/13 25/60/13 24/57/13
f 30/75/8 28/70/8 24/58/8
f 27/67/22 25/61/22 29/72/22
usemtl マテリアル.002
f 32/78/23 33/82/23 34/85/23
f 32/79/24 34/86/24 36/90/24
f 32/80/25 36/91/25 35/89/25
f 32/81/26 35/88/26 33/83/26
f 34/87/27 35/89/27 36/91/27
f 34/87/27 33/84/27 35/89/27
